<?xml version="1.0" encoding="UTF-8"?>
<svg width="1200pt" height="1200pt" version="1.1" viewBox="0 0 1200 1200" xmlns="http://www.w3.org/2000/svg">
 <path d="m61.266 474.51c30.973 26.535 67.281 45.625 108.12 55.746-21.586 53.559-33.48 112.03-33.48 173.23 0 93.426 27.535 182.93 78.68 258.95 4.7188 6.9883 37.16 46.254 73.762 46.254h231.71c66.586 0 67.641 4.0273 67.641 4.0273 14.426-82.961 7.1328-163.39-4.0781-213.01 0 0-108.61 8.7344-165.32-61.48-56.691-70.227-64.773-230.71-64.773-230.71s158.08 19.906 214.05 90.734c39.828 50.398 35.535 97.68 35.535 94.121 0 0 5.0547-26.602 26.535-55.266 38.785-51.707 140.09-79.414 140.09-79.414s12.934 121.41-23.52 174.79c-36.441 53.387-98.586 67.266-98.586 67.266 10.867 54.852 16.359 127.59 1.4922 212.97 0 0 4.375-4.0273 62.027-4.0273h199.01c41.199 0 72.254-39.922 77.148-47.238 51.094-76.414 78.094-165.61 78.094-257.96 0 0-11.105-117.62-33.039-172.44-12.441-31.094 2.6914-66.375 33.785-78.801 31.094-12.441 66.375 2.707 78.785 33.785 27.684 69.203 41.727 142.36 41.727 217.47 0 116.41-34.078 228.92-98.559 325.32-19.719 29.52-42.281 57.398-67.039 82.895 0 0-27.094 18.387-43.48 18.387l-753.82 0.039062c-16.387 0-32.066-6.6133-43.48-18.387-106.8-109.95-165.61-254.93-165.61-408.25 0-81.199 16.602-158.61 46.586-228.98zm400.39-340.36c21.266 34.746 34.188 72.867 37.535 115.72l0.76172-0.13281c32.453-7.1992 66.148-10.988 100.72-10.988 46.426 0 91.734 6.6797 135.28 19.945l-67.586 91.574c-14.027 18.988-15.746 44.398-4.4141 65.105 10.68 19.508 31.133 31.508 53.16 31.508 1.3477 0 2.707-0.039062 4.0664-0.13281l270.17-18.055c17.785-1.1875 34.16-10.133 44.734-24.48 0 0 14.32-32.602 10.227-49.961l-62.309-263.5c-5.4414-22.973-23.707-40.707-46.852-45.441-23.133-4.7188-46.906 4.3867-60.922 23.375l-64.84 87.84c-59.199-22.867-158-38.668-207.03-38.48-36.32 0.16016-98.133 5.2266-142.71 16.109zm-55.852 31.066c0-11.574-9.3867-20.961-20.973-20.961h-249.45c-11.574 0-20.945 9.3867-20.945 20.961v35.719c0 11.586 9.375 20.973 20.945 20.973h249.44c11.586 0 20.973-9.3867 20.973-20.973l-0.003906-35.719zm-230.88 86.934c0-7.5859-6.1328-13.719-13.707-13.719l-33.082-0.003907c-7.5586 0-13.707 6.1328-13.707 13.719v33.066c0 7.5742 6.1484 13.719 13.707 13.719h33.066c7.5742 0 13.707-6.1484 13.707-13.719v-33.062zm76.973 0c0-7.5859-6.1484-13.719-13.734-13.719h-33.055c-7.5742 0-13.719 6.1328-13.719 13.719v33.066c0 7.5742 6.1484 13.719 13.719 13.719h33.055c7.5859 0 13.734-6.1484 13.734-13.719zm76.934 0c0-7.5859-6.1328-13.719-13.719-13.719h-33.055c-7.5742 0-13.734 6.1328-13.734 13.719v33.066c0 7.5742 6.1602 13.719 13.734 13.719h33.055c7.5859 0 13.719-6.1484 13.719-13.719zm0 0c0-7.5859-6.1328-13.719-13.719-13.719h-33.055c-7.5742 0-13.734 6.1328-13.734 13.719v33.066c0 7.5742 6.1602 13.719 13.734 13.719h33.055c7.5859 0 13.719-6.1484 13.719-13.719zm76.973 0c0-7.5859-6.1484-13.719-13.734-13.719h-33.055c-7.5742 0-13.719 6.1328-13.719 13.719v33.066c0 7.5742 6.1484 13.719 13.719 13.719h33.055c7.5859 0 13.734-6.1484 13.734-13.719zm-230.88 77.559c0-7.5859-6.1328-13.719-13.707-13.719h-33.082c-7.5586 0-13.707 6.1328-13.707 13.719v33.055c0 7.5859 6.1484 13.734 13.707 13.734h33.066c7.5742 0 13.707-6.1484 13.707-13.734v-33.055zm76.973 0c0-7.5859-6.1484-13.719-13.734-13.719h-33.055c-7.5742 0-13.719 6.1328-13.719 13.719v33.055c0 7.5859 6.1484 13.734 13.719 13.734h33.055c7.5859 0 13.734-6.1484 13.734-13.734zm76.934 0c0-7.5859-6.1328-13.719-13.719-13.719h-33.055c-7.5742 0-13.734 6.1328-13.734 13.719v33.055c0 7.5859 6.1602 13.734 13.734 13.734h33.055c7.5859 0 13.719-6.1484 13.719-13.734zm0 0c0-7.5859-6.1328-13.719-13.719-13.719h-33.055c-7.5742 0-13.734 6.1328-13.734 13.719v33.055c0 7.5859 6.1602 13.734 13.734 13.734h33.055c7.5859 0 13.719-6.1484 13.719-13.734zm76.973 0c0-7.5859-6.1484-13.719-13.734-13.719h-33.055c-7.5742 0-13.719 6.1328-13.719 13.719v33.055c0 7.5859 6.1484 13.734 13.719 13.734h33.055c7.5859 0 13.734-6.1484 13.734-13.734zm-230.88 75.734c0-7.5742-6.1328-13.719-13.707-13.719l-33.082-0.003906c-7.5586 0-13.707 6.1328-13.707 13.719v33.066c0 7.5742 6.1484 13.719 13.707 13.719h33.066c7.5742 0 13.707-6.1484 13.707-13.719v-33.062zm76.973 0c0-7.5742-6.1484-13.719-13.734-13.719h-33.055c-7.5742 0-13.719 6.1328-13.719 13.719v33.066c0 7.5742 6.1484 13.719 13.719 13.719h33.055c7.5859 0 13.734-6.1484 13.734-13.719zm76.934 0c0-7.5742-6.1328-13.719-13.719-13.719h-33.055c-7.5742 0-13.734 6.1328-13.734 13.719v33.066c0 7.5742 6.1602 13.719 13.734 13.719h33.055c7.5859 0 13.719-6.1484 13.719-13.719zm0 0c0-7.5742-6.1328-13.719-13.719-13.719h-33.055c-7.5742 0-13.734 6.1328-13.734 13.719v33.066c0 7.5742 6.1602 13.719 13.734 13.719h33.055c7.5859 0 13.719-6.1484 13.719-13.719zm76.973 0c0-7.5742-6.1484-13.719-13.734-13.719h-33.055c-7.5742 0-13.719 6.1328-13.719 13.719v33.066c0 7.5742 6.1484 13.719 13.719 13.719h33.055c7.5859 0 13.734-6.1484 13.734-13.719z"/>
</svg>
